<svg width="15" height="15" viewBox="0 0 15 15" fill="none" xmlns="http://www.w3.org/2000/svg">
    <g clip-path="url(#clip0)">
    <path d="M7.03125 14.0625H0.9375V0.9375H7.03125C7.29 0.9375 7.5 0.7275 7.5 0.46875C7.5 0.21 7.29 0 7.03125 0H0.46875C0.21 0 0 0.21 0 0.46875V14.5312C0 14.79 0.21 15 0.46875 15H7.03125C7.29 15 7.5 14.79 7.5 14.5312C7.5 14.2725 7.29 14.0625 7.03125 14.0625Z" fill="#888888"/>
    <path d="M14.8641 7.17283L11.6297 3.89205C11.4464 3.70689 11.1497 3.70736 10.9669 3.89205C10.7836 4.07674 10.7836 4.37674 10.9669 4.56142L13.4044 7.03408H3.7514C3.49265 7.03408 3.28265 7.24595 3.28265 7.50752C3.28265 7.76908 3.49265 7.98095 3.7514 7.98095H13.4044L10.9669 10.4536C10.7836 10.6388 10.7836 10.9383 10.9669 11.123C11.1502 11.3081 11.4469 11.3081 11.6297 11.123L14.8636 7.8422C15.0445 7.65986 15.0464 7.3547 14.8641 7.17283Z" fill="#888888"/>
    </g>
    <defs>
    <clipPath id="clip0">
    <rect width="15" height="15" fill="white"/>
    </clipPath>
    </defs>
</svg>