<svg width="15" height="15" viewBox="0 0 15 15" fill="none" xmlns="http://www.w3.org/2000/svg">
<path d="M12.3248 9.49009C12.3778 9.36088 12.4596 9.24544 12.5638 9.15249C12.6681 9.05954 12.7921 8.99153 12.9265 8.9536C13.6271 8.78636 14.3132 8.56332 14.9782 8.28661V6.64089L12.9193 6.03915C12.7862 6.00026 12.6636 5.93181 12.5607 5.83892C12.4577 5.74602 12.3771 5.63107 12.3248 5.50266V5.50266C12.2716 5.37346 12.2486 5.23386 12.2574 5.09444C12.2662 4.95501 12.3066 4.81942 12.3755 4.69792C12.7583 4.07799 13.0904 3.42823 13.3688 2.75495L12.2015 1.59497C11.5465 1.8783 10.916 2.21536 10.3166 2.60271C10.1938 2.67512 10.0559 2.71804 9.91378 2.72811C9.77162 2.73817 9.62907 2.7151 9.49734 2.66071V2.66071C9.37259 2.60978 9.26054 2.53209 9.16909 2.43313C9.07764 2.33417 9.00903 2.21634 8.9681 2.08797L8.28661 0H6.64089L6.03915 2.06622C6.00102 2.19859 5.93368 2.32072 5.84209 2.4236C5.75049 2.52649 5.63698 2.60752 5.50991 2.66071V2.66071C5.38125 2.71495 5.24195 2.73921 5.10253 2.73168C4.96311 2.72414 4.82723 2.685 4.70517 2.61721C4.08287 2.23834 3.43062 1.911 2.75495 1.63847L1.58772 2.8057C1.87066 3.45863 2.20775 4.08673 2.59546 4.68342C2.66787 4.80617 2.71079 4.94405 2.72086 5.08621C2.73092 5.22837 2.70785 5.37093 2.65346 5.50266V5.50266C2.60042 5.63187 2.51868 5.74731 2.41442 5.84026C2.31017 5.93321 2.18614 6.00122 2.05172 6.03915C1.35162 6.20818 0.66566 6.43117 0 6.70614L0 8.35186C0.663051 8.6141 1.34694 8.82024 2.04447 8.9681C2.18085 9.00339 2.30732 9.0695 2.41414 9.16135C2.52096 9.2532 2.60528 9.36833 2.6606 9.49789C2.71593 9.62745 2.74079 9.76798 2.73326 9.90866C2.72574 10.0493 2.68603 10.1864 2.61721 10.3093C2.24098 10.923 1.91372 11.5654 1.63847 12.2305L2.8057 13.4123C3.46012 13.1276 4.09049 12.7906 4.69067 12.4045C4.81079 12.3298 4.94653 12.2836 5.08735 12.2698C5.22817 12.256 5.37029 12.2748 5.50266 12.3248V12.3248C5.63187 12.3778 5.74731 12.4596 5.84026 12.5638C5.93321 12.6681 6.00122 12.7921 6.03915 12.9265C6.2059 13.6273 6.42896 14.3134 6.70614 14.9782H8.35186C8.61283 14.3172 8.81894 13.6359 8.9681 12.941C9.00381 12.8019 9.07159 12.673 9.166 12.5648C9.26042 12.4565 9.37885 12.3718 9.51184 12.3175V12.3175C9.64104 12.2644 9.78064 12.2413 9.92006 12.2501C10.0595 12.2589 10.1951 12.2993 10.3166 12.3683C10.9295 12.7458 11.572 13.0731 12.2378 13.347L13.405 12.1798C13.1222 11.5268 12.7851 10.8987 12.3973 10.3021C12.3248 10.1823 12.2806 10.0475 12.2681 9.90809C12.2555 9.76864 12.2749 9.62816 12.3248 9.49734V9.49009ZM7.47463 11.1068C6.75768 11.1068 6.05683 10.8942 5.46072 10.4959C4.8646 10.0976 4.39998 9.53145 4.12562 8.86908C3.85125 8.20671 3.77947 7.47785 3.91934 6.77468C4.05921 6.07151 4.40445 5.42561 4.91141 4.91866C5.41836 4.4117 6.06426 4.06646 6.76743 3.92659C7.4706 3.78672 8.19946 3.8585 8.86183 4.13287C9.5242 4.40723 10.0903 4.87185 10.4887 5.46797C10.887 6.06408 11.0996 6.76493 11.0996 7.48187C11.1015 8.43952 10.7244 9.35903 10.0507 10.0396C9.37692 10.7201 8.46124 11.1064 7.50362 11.1141L7.47463 11.1068Z" fill="#C4C4C4"/>
</svg>
